<mxfile host="app.diagrams.net" modified="2024-03-12T14:20:24.860Z" agent="Mozilla/5.0 (Windows NT 10.0; Win64; x64) AppleWebKit/537.36 (KHTML, like Gecko) Chrome/122.0.0.0 Safari/537.36" version="24.0.4" etag="kS7xhHOIgX02eEYprOLL" type="github">
  <diagram name="第 1 页" id="SGukPir_UWberAC0a7HO">
    <mxGraphModel>
      <root>
        <mxCell id="0" />
        <mxCell id="1" parent="0" />
      </root>
    </mxGraphModel>
  </diagram>
</mxfile>
